<svg width="102" height="102" viewBox="0 0 102 102" fill="none" xmlns="http://www.w3.org/2000/svg">
<path d="M51 101C78.6142 101 101 95.3754 101 88.4372C101 81.4989 78.6142 75.8744 51 75.8744C23.3858 75.8744 1 81.4989 1 88.4372C1 95.3754 23.3858 101 51 101Z" fill="#E0E0E0" stroke="#555555" stroke-width="2"/>
<path d="M1 88.4372V73.3618C1 70.0299 6.26784 66.8345 15.6447 64.4786C25.0215 62.1226 37.7392 60.799 51 60.799C64.2608 60.799 76.9785 62.1226 86.3553 64.4786C95.7322 66.8345 101 70.0299 101 73.3618V88.4372C101 91.7691 95.7322 94.9645 86.3553 97.3204C76.9785 99.6764 64.2608 101 51 101C37.7392 101 25.0215 99.6764 15.6447 97.3204C6.26784 94.9645 1 91.7691 1 88.4372Z" fill="#00BE59" stroke="#555555" stroke-width="2"/>
<path d="M51 85.9246C78.6142 85.9246 101 80.3001 101 73.3618C101 66.4236 78.6142 60.799 51 60.799C23.3858 60.799 1 66.4236 1 73.3618C1 80.3001 23.3858 85.9246 51 85.9246Z" fill="white" stroke="#555555" stroke-width="2"/>
<path d="M51 85.9246C78.6142 85.9246 101 80.3001 101 73.3618C101 66.4236 78.6142 60.799 51 60.799C23.3858 60.799 1 66.4236 1 73.3618C1 80.3001 23.3858 85.9246 51 85.9246Z" fill="#E0E0E0" stroke="#555555" stroke-width="2"/>
<path d="M1 73.3618V58.2864C1 54.9546 6.26784 51.7592 15.6447 49.4032C25.0215 47.0472 37.7392 45.7236 51 45.7236C64.2608 45.7236 76.9785 47.0472 86.3553 49.4032C95.7322 51.7592 101 54.9546 101 58.2864V73.3618C101 76.6937 95.7322 79.8891 86.3553 82.2451C76.9785 84.601 64.2608 85.9246 51 85.9246C37.7392 85.9246 25.0215 84.601 15.6447 82.2451C6.26784 79.8891 1 76.6937 1 73.3618Z" fill="#E83134" stroke="#555555" stroke-width="2"/>
<path d="M51 70.8492C78.6142 70.8492 101 65.2247 101 58.2864C101 51.3482 78.6142 45.7236 51 45.7236C23.3858 45.7236 1 51.3482 1 58.2864C1 65.2247 23.3858 70.8492 51 70.8492Z" fill="white" stroke="#555555" stroke-width="2"/>
<path d="M51 71.3518C78.6142 71.3518 101 65.7272 101 58.7889C101 51.8507 78.6142 46.2261 51 46.2261C23.3858 46.2261 1 51.8507 1 58.7889C1 65.7272 23.3858 71.3518 51 71.3518Z" fill="#E0E0E0" stroke="#555555" stroke-width="2"/>
<path d="M1 58.7889V43.7136C1 40.3817 6.26784 37.1863 15.6447 34.8303C25.0215 32.4743 37.7392 31.1508 51 31.1508C64.2608 31.1508 76.9785 32.4743 86.3553 34.8303C95.7322 37.1863 101 40.3817 101 43.7136V58.7889C101 62.1208 95.7322 65.3162 86.3553 67.6722C76.9785 70.0282 64.2608 71.3518 51 71.3518C37.7392 71.3518 25.0215 70.0282 15.6447 67.6722C6.26784 65.3162 1 62.1208 1 58.7889Z" fill="#863DE6" stroke="#555555" stroke-width="2"/>
<path d="M51 56.2764C78.6142 56.2764 101 50.6518 101 43.7136C101 36.7753 78.6142 31.1508 51 31.1508C23.3858 31.1508 1 36.7753 1 43.7136C1 50.6518 23.3858 56.2764 51 56.2764Z" fill="white" stroke="#555555" stroke-width="2"/>
<path d="M51 56.2764C78.6142 56.2764 101 50.6518 101 43.7136C101 36.7753 78.6142 31.1508 51 31.1508C23.3858 31.1508 1 36.7753 1 43.7136C1 50.6518 23.3858 56.2764 51 56.2764Z" fill="#E0E0E0" stroke="#555555" stroke-width="2"/>
<path d="M1 43.7136V28.6382C1 25.3063 6.26784 22.1109 15.6447 19.7549C25.0215 17.399 37.7392 16.0754 51 16.0754C64.2608 16.0754 76.9785 17.399 86.3553 19.7549C95.7322 22.1109 101 25.3063 101 28.6382V43.7136C101 47.0454 95.7322 50.2408 86.3553 52.5968C76.9785 54.9528 64.2608 56.2764 51 56.2764C37.7392 56.2764 25.0215 54.9528 15.6447 52.5968C6.26784 50.2408 1 47.0454 1 43.7136Z" fill="#FCB936" stroke="#555555" stroke-width="2"/>
<path d="M51 41.201C78.6142 41.201 101 35.5764 101 28.6382C101 21.6999 78.6142 16.0754 51 16.0754C23.3858 16.0754 1 21.6999 1 28.6382C1 35.5764 23.3858 41.201 51 41.201Z" fill="white" stroke="#555555" stroke-width="2"/>
<path d="M51 41.201C78.6142 41.201 101 35.5764 101 28.6382C101 21.6999 78.6142 16.0754 51 16.0754C23.3858 16.0754 1 21.6999 1 28.6382C1 35.5764 23.3858 41.201 51 41.201Z" fill="#E0E0E0" stroke="#555555" stroke-width="2"/>
<path d="M1 28.6382V13.5628C1 10.2309 6.26784 7.03555 15.6447 4.67956C25.0215 2.32358 37.7392 1 51 1C64.2608 1 76.9785 2.32358 86.3553 4.67956C95.7322 7.03555 101 10.2309 101 13.5628V28.6382C101 31.9701 95.7322 35.1655 86.3553 37.5214C76.9785 39.8774 64.2608 41.201 51 41.201C37.7392 41.201 25.0215 39.8774 15.6447 37.5214C6.26784 35.1655 1 31.9701 1 28.6382Z" fill="#6B7A91" stroke="#555555" stroke-width="2"/>
<path d="M51 26.1256C78.6142 26.1256 101 20.5011 101 13.5628C101 6.62456 78.6142 1 51 1C23.3858 1 1 6.62456 1 13.5628C1 20.5011 23.3858 26.1256 51 26.1256Z" fill="#8695AB" stroke="#555555" stroke-width="2"/>
</svg>
